<svg viewBox="0 0 100 100" fill="none" xmlns="http://www.w3.org/2000/svg">
  <rect width="100" height="100" rx="22" fill="#2A1D4E" />

  <!-- Left Shard Drop Shadow -->
  <polygon points="33,60 40,43 47,52 35,62" fill="#150E28" fill-opacity="0.6" />
  <!-- Left Shard Base -->
  <polygon points="36,38 34,46 31,56 42,48" fill="#5D7CA6" />
  <polygon points="36,38 34,46 38,47" fill="#E2F1F8" />
  <polygon points="34,46 31,56 38,47" fill="#9DC1DF" />
  <polygon points="36,38 42,48 38,47" fill="#7A9ECC" />
  <polygon points="38,47 31,56 42,48" fill="#3B4E7A" />

  <!-- Bottom Right Shard Drop Shadow -->
  <polygon points="48,72 72,66 62,74" fill="#150E28" fill-opacity="0.6" />
  <!-- Bottom Right Shard -->
  <polygon points="46,67 60,59 70,60 62,69" fill="#5D7CA6" />
  <polygon points="46,67 60,59 60,64" fill="#E2F1F8" />
  <polygon points="60,59 70,60 60,64" fill="#9DC1DF" />
  <polygon points="46,67 60,64 62,69" fill="#7A9ECC" />
  <polygon points="60,64 70,60 62,69" fill="#3B4E7A" />

  <!-- Main Crystal Drop Shadow -->
  <polygon points="35,80 50,75 75,50 85,30 75,25" fill="#150E28" fill-opacity="0.5" />

  <!-- Main Crystal Base Silhouette -->
  <polygon points="76,24 55,32 38,48 30,62 30,74 45,73 65,60 80,30" fill="#5D7CA6" />

  <!-- Main Crystal Left Facets -->
  <polygon points="76,24 55,32 60,43" fill="#E2F1F8" />
  <polygon points="55,32 38,48 45,60 60,43" fill="#9DC1DF" />
  <polygon points="38,48 30,62 45,60" fill="#7A9ECC" />
  <polygon points="30,62 30,74 45,60" fill="#9DC1DF" />

  <!-- Main Crystal Right Facets -->
  <polygon points="76,24 60,43 73,35" fill="#7A9ECC" />
  <polygon points="60,43 45,60 58,58 73,35" fill="#5D7CA6" />
  <polygon points="45,60 30,74 40,70 58,58" fill="#3B4E7A" />

  <!-- Outer Dark Right Edge -->
  <polygon points="76,24 73,35 58,58 40,70 30,74 45,73 65,60 80,30" fill="#21284A" />
</svg>
